<svg xmlns="http://www.w3.org/2000/svg" width="23.946" height="39.964" viewBox="0 0 23.946 39.964">
  <g id="グループ_2948" data-name="グループ 2948" transform="translate(4549.975 12709)">
    <path id="パス_10555" data-name="パス 10555" d="M10.673-3.055a9.369,9.369,0,0,1,1.313.078v-.871a8.4,8.4,0,0,1-1.313.078H7.319c.039-.26.065-.455.078-.65a5.261,5.261,0,0,1,.078-.806H6.539a3.356,3.356,0,0,1,.052.52A7.026,7.026,0,0,1,6.5-3.77H4.238A7.581,7.581,0,0,1,2.99-3.835v.845a8.5,8.5,0,0,1,1.248-.065H6.357A3.575,3.575,0,0,1,4.511-.819,8.674,8.674,0,0,1,2.184.026a2.717,2.717,0,0,1,.429.806A8.457,8.457,0,0,0,5.421-.481,4.561,4.561,0,0,0,7.033-2.665,5.264,5.264,0,0,0,8.814-.481,8.976,8.976,0,0,0,11.9.858,2.883,2.883,0,0,1,12.285,0a9.627,9.627,0,0,1-1.56-.4,7.348,7.348,0,0,1-1.469-.715A4.3,4.3,0,0,1,7.618-3.055Zm1.456-7.293a10.854,10.854,0,0,1-1.456.078H2.34a10.971,10.971,0,0,1-1.43-.078v.9a10.888,10.888,0,0,1,1.43-.065h8.333a10.491,10.491,0,0,1,1.456.065ZM10-5.6a10.414,10.414,0,0,1,1.222.052,6.327,6.327,0,0,1-.039-.9V-7.67a5.868,5.868,0,0,1,.039-.884A9.468,9.468,0,0,1,10-8.5H3.354c-.611,0-1.04-.013-1.43-.052.026.351.052.728.052,1.2,0,4.381-.312,5.811-1.638,7.631a3.241,3.241,0,0,1,.689.559C2.288-.975,2.665-2.4,2.756-5.6Zm-7.215-.7c0-.247.013-.39.013-.754V-7.8h7.579v1.495Zm13.351-2.4a6.4,6.4,0,0,1,.7-.065c1.976-.065,3.536-.156,3.952-.234a.5.5,0,0,1,.117-.013L20.93-9l-.052.052-.052.052-.182.182c-.9.884-2.951,2.691-4.342,3.8a14.483,14.483,0,0,1-1.82,1.326l.585.832A8.343,8.343,0,0,1,20.54-4.979c1.755,0,2.795.741,2.795,1.989,0,1.105-.715,1.9-2.08,2.275a3.721,3.721,0,0,0-.6-1.248,2.618,2.618,0,0,0-2.145-1.066,1.689,1.689,0,0,0-1.885,1.521c0,1.2,1.053,1.872,2.886,1.872C22.4.364,24.284-.975,24.284-3c0-1.664-1.391-2.73-3.562-2.73a6.587,6.587,0,0,0-3.185.806l-.026-.039a33.358,33.358,0,0,0,4.277-3.692,2.4,2.4,0,0,1,.663-.546L21.9-9.919a1.329,1.329,0,0,1-.624.143c-1.17.091-2.9.169-3.978.169a6,6,0,0,1-1.222-.078ZM20.4-.481a4.681,4.681,0,0,1-.949.091,3.322,3.322,0,0,1-1.456-.3.887.887,0,0,1-.52-.793c0-.494.4-.806,1.053-.806C19.461-2.288,20.111-1.664,20.4-.481Z" transform="translate(-4550.313 -12669.895)" fill="#333"/>
    <g id="多角形_1" data-name="多角形 1" transform="translate(-4548.313 -12689) rotate(-90)" fill="none">
      <path d="M9.126,1.573a1,1,0,0,1,1.748,0l8.3,14.941A1,1,0,0,1,18.3,18H1.7a1,1,0,0,1-.874-1.486Z" stroke="none"/>
      <path d="M 10 2.059127807617188 L 1.69951057434082 16.99999618530273 L 18.30047988891602 16.99999618530273 L 10.00000953674316 2.059137344360352 C 10.00000762939453 2.059131622314453 10.0000057220459 2.05912971496582 10 2.059127807617188 M 10 1.05912971496582 C 10.34182739257812 1.05912971496582 10.68365478515625 1.230581283569336 10.87415981292725 1.573486328125 L 19.17464065551758 16.51435661315918 C 19.54494094848633 17.18088722229004 19.06296920776367 17.99999618530273 18.30048942565918 17.99999618530273 L 1.69951057434082 17.99999618530273 C 0.9370307922363281 17.99999618530273 0.4550590515136719 17.18088722229004 0.8253593444824219 16.51435661315918 L 9.125840187072754 1.573486328125 C 9.31634521484375 1.230581283569336 9.658172607421875 1.05912971496582 10 1.05912971496582 Z" stroke="none" fill="#333"/>
    </g>
  </g>
</svg>
