<svg xmlns="http://www.w3.org/2000/svg" width="36.439" height="41.158" viewBox="0 0 36.439 41.158">
  <g id="グループ_2949" data-name="グループ 2949" transform="translate(4406.431 12710.559)">
    <g id="前面オブジェクトで型抜き_2" data-name="前面オブジェクトで型抜き 2" transform="translate(-4397.313 -12710.559)" fill="none" stroke-linecap="round" stroke-linejoin="round">
      <path d="M6.009,21.819H-1V7.5L8.932,0l9.946,7.5V21.817h-6.9v-6.69H6.009v6.69Z" stroke="none"/>
      <path d="M 5.009298801422119 20.81865692138672 L 5.009298801422119 15.12810039520264 C 5.009298801422119 14.57581996917725 5.457018852233887 14.12810039520264 6.009298801422119 14.12810039520264 L 11.97269916534424 14.12810039520264 C 12.52497863769531 14.12810039520264 12.97269916534424 14.57581996917725 12.97269916534424 15.12810039520264 L 12.97269916534424 20.81765556335449 L 17.87749862670898 20.81694412231445 L 17.87749862670898 7.993767738342285 L 8.932031631469727 1.252490878105164 L 9.890442015603185e-05 7.993327617645264 L 9.890442015603185e-05 20.81794357299805 L 5.009298801422119 20.81865692138672 M 6.009298801422119 21.81879997253418 L -0.9999011158943176 21.81780052185059 L -0.9999011158943176 7.495200157165527 L 8.931598663330078 -1.373291169670665e-08 L 18.87749862670898 7.495200157165527 L 18.87749862670898 21.81679916381836 L 11.97269916534424 21.81780052185059 L 11.97269916534424 15.12810039520264 L 6.009298801422119 15.12810039520264 L 6.009298801422119 21.81879997253418 Z" stroke="none" fill="#333"/>
    </g>
    <path id="パス_10556" data-name="パス 10556" d="M5.993-8.2H2.821a9.366,9.366,0,0,1-1.508-.078v.988a11.742,11.742,0,0,1,1.5-.065H5.993V-.871A7.171,7.171,0,0,1,5.915.494H6.981A8.738,8.738,0,0,1,6.916-.884V-7.358h3.3a11.742,11.742,0,0,1,1.495.065v-.988a9.449,9.449,0,0,1-1.521.078H6.916v-.845A8.062,8.062,0,0,1,6.981-10.4H5.915a6.711,6.711,0,0,1,.078,1.326ZM3.185-6.149A9.649,9.649,0,0,1,2.054-2.873,6.281,6.281,0,0,1,.819-1.183a2.651,2.651,0,0,1,.858.559,11.686,11.686,0,0,0,2.275-4.5c.169-.611.169-.624.221-.767Zm5.551.26a7.924,7.924,0,0,1,.325.845,21.259,21.259,0,0,0,.91,2.236A12.555,12.555,0,0,0,11.323-.585a3.062,3.062,0,0,1,.819-.611A11.073,11.073,0,0,1,10.127-4.68a8.722,8.722,0,0,1-.481-1.456Zm5.395,1.43a14.2,14.2,0,0,1,1.612-.052h7.54a14.872,14.872,0,0,1,1.586.052V-5.512a10.253,10.253,0,0,1-1.573.065H15.743a9.2,9.2,0,0,1-1.612-.078ZM30.81-10.335a24.668,24.668,0,0,1-1.027,3.744A49.58,49.58,0,0,1,27.82-1.443c-.3.026-1.014.065-1.1.065-.065,0-.065,0-.364-.013l.13,1.079a9.04,9.04,0,0,1,1.1-.143,80.3,80.3,0,0,0,8-1.079A17.646,17.646,0,0,1,36.348.221l.91-.494a33.674,33.674,0,0,0-3.237-5.876l-.806.442a25.288,25.288,0,0,1,2,3.367c-1.534.3-4.589.7-6.318.819a70.432,70.432,0,0,0,2.7-7.605,5.14,5.14,0,0,1,.351-.936Z" transform="translate(-4407.25 -12669.895)" fill="#333"/>
  </g>
</svg>
