<svg xmlns="http://www.w3.org/2000/svg" width="75.621" height="34.54" viewBox="0 0 75.621 34.54">
  <g id="グループ_2950" data-name="グループ 2950" transform="translate(4278.048 12703.928)">
    <path id="パス_10557" data-name="パス 10557" d="M1.365-2.951c.156-.208.208-.273.39-.481C2.5-4.29,3.6-5.642,4.082-6.292c.572-.767.65-.832.9-.832s.312.052,1.17.962a49.73,49.73,0,0,0,4.407,4.3c.858.728.871.741,1.157,1l.494-1.066a5.655,5.655,0,0,1-1.079-.78A41.769,41.769,0,0,1,6.682-6.942c-.936-1.04-1.157-1.2-1.677-1.2-.585,0-.923.247-1.651,1.235-.637.845-1.833,2.275-2.223,2.652A2.486,2.486,0,0,1,.7-3.926ZM10-9.139A1.337,1.337,0,0,0,8.658-7.8,1.337,1.337,0,0,0,10-6.461,1.337,1.337,0,0,0,11.336-7.8,1.337,1.337,0,0,0,10-9.139Zm0,.546a.788.788,0,0,1,.793.793A.788.788,0,0,1,10-7.007.8.8,0,0,1,9.2-7.8.788.788,0,0,1,10-8.593Zm3.744,4.134a14.2,14.2,0,0,1,1.612-.052h7.54a14.872,14.872,0,0,1,1.586.052V-5.512a10.253,10.253,0,0,1-1.573.065H15.353a9.2,9.2,0,0,1-1.612-.078ZM28.418-9.165a13.732,13.732,0,0,1,3.2,1.729l.533-.871a19.223,19.223,0,0,0-3.224-1.638Zm-1.027,3.12a13.952,13.952,0,0,1,3.315,1.781l.507-.884a19.767,19.767,0,0,0-3.3-1.69Zm7.865-4.03a9.469,9.469,0,0,1,1.313,1.846l.663-.351a9.722,9.722,0,0,0-1.3-1.833ZM27.833.169a3.16,3.16,0,0,1,.507-.13c.26-.052.494-.1.7-.143a15.548,15.548,0,0,0,3.289-1.118,10.234,10.234,0,0,0,5-5.6,4,4,0,0,1-.806-.7A9.6,9.6,0,0,1,34.97-4.6a8.562,8.562,0,0,1-3.9,2.9,11.242,11.242,0,0,1-3.5.806Zm8.7-10.894a8.9,8.9,0,0,1,1.3,1.846l.676-.364a9.382,9.382,0,0,0-1.3-1.82ZM43.576.4a8.842,8.842,0,0,1-.065-1.378V-4.888a4.54,4.54,0,0,0-.052-.767l.026-.013a1.434,1.434,0,0,0,.4.221,26.505,26.505,0,0,1,4.849,2.574l.559-.962a32.241,32.241,0,0,0-5.785-2.743V-9.009a8.16,8.16,0,0,1,.065-1.352H42.458a7.708,7.708,0,0,1,.078,1.326V-.962A8.361,8.361,0,0,1,42.458.4ZM54.041-6.864a10.724,10.724,0,0,1,1.222,2.912l.884-.3A14.275,14.275,0,0,0,54.86-7.137Zm2.678-.546a11.405,11.405,0,0,1,1.2,2.847l.858-.3a13.037,13.037,0,0,0-1.261-2.795Zm4.511-.013v.13a5.463,5.463,0,0,1-.143.884,9.808,9.808,0,0,1-1.1,2.8A8.344,8.344,0,0,1,55.861-.221a2.63,2.63,0,0,1,.6.728,9.424,9.424,0,0,0,4.3-3.757,11.7,11.7,0,0,0,1.144-2.912,7.672,7.672,0,0,1,.286-1.053ZM73.489-9.087h-6.4a9.313,9.313,0,0,1-1.469-.078v1.04A9.04,9.04,0,0,1,67.08-8.2H73.7A9.612,9.612,0,0,1,69.6-2,9.976,9.976,0,0,1,66.664-.624a2.524,2.524,0,0,1,.637.9A11.738,11.738,0,0,0,69.693-.884a11.189,11.189,0,0,0,3.2-2.977A13.3,13.3,0,0,0,74.7-8.021a1.245,1.245,0,0,0,.286.039,1.337,1.337,0,0,0,1.339-1.339,1.337,1.337,0,0,0-1.339-1.339,1.334,1.334,0,0,0-1.339,1.326,2,2,0,0,0,.026.247Zm1.5-1.027a.788.788,0,0,1,.793.793.788.788,0,0,1-.793.793.8.8,0,0,1-.793-.793A.788.788,0,0,1,74.984-10.114Z" transform="translate(-4278.75 -12669.895)" fill="#333"/>
    <path id="パス_82" data-name="パス 82" d="M105.393,850.057l10.287-10.287,10.838,10.287" transform="translate(-4355.205 -13543)" fill="none" stroke="#333" stroke-linecap="round" stroke-width="1"/>
  </g>
</svg>
