<svg xmlns="http://www.w3.org/2000/svg" width="70.048" height="13.264" viewBox="0 0 70.048 13.264">
  <path id="パス_10575" data-name="パス 10575" d="M9.872-9.92l-.192.688a1.5,1.5,0,0,0-1.616-.992c-2.224,0-3.952,2.208-3.952,5.024,0,1.808.88,2.864,2.4,2.864a3.166,3.166,0,0,0,.88-.144,2.392,2.392,0,0,0,1.216-.96v.1c0,.7.512,1.12,1.36,1.12a3.965,3.965,0,0,0,1.968-.608,5.087,5.087,0,0,0,2.3-4.448c0-3.3-2.5-5.52-6.208-5.52a7.282,7.282,0,0,0-5.36,2.1A6.357,6.357,0,0,0,.8-6.032,6.431,6.431,0,0,0,2.576-1.44,6.944,6.944,0,0,0,7.664.464,9.831,9.831,0,0,0,10.656,0,8.377,8.377,0,0,0,12.64-.944L11.808-2.16a5.191,5.191,0,0,1-1.52.832A7.835,7.835,0,0,1,7.712-.9C4.512-.9,2.32-2.96,2.32-6a5.441,5.441,0,0,1,5.76-5.456c2.832,0,4.736,1.712,4.736,4.272a3.929,3.929,0,0,1-1.44,3.2,2.48,2.48,0,0,1-1.168.48c-.288,0-.448-.144-.448-.4a1.7,1.7,0,0,1,.064-.464l1.088-4.08c.176-.656.3-1.088.432-1.472Zm-1.728.944c.624,0,.944.416.944,1.232a6.106,6.106,0,0,1-.88,3.008A2.158,2.158,0,0,1,6.624-3.664c-.672,0-1.008-.5-1.008-1.472A5.934,5.934,0,0,1,6.032-7.2C6.512-8.352,7.264-8.976,8.144-8.976Zm14.3-.016a16.881,16.881,0,0,1,.128,2.08V-3.68c-.72,1.584-1.632,2.368-2.784,2.368a1.991,1.991,0,0,1-.88-.224,1.953,1.953,0,0,1-.736-1.824V-6.912a14.32,14.32,0,0,1,.112-2.08h-2.32a14.706,14.706,0,0,1,.128,2.08v4.048A2.986,2.986,0,0,0,17.392-.1a3.485,3.485,0,0,0,1.92.464,3.517,3.517,0,0,0,3.28-1.712c-.016.4-.016.448-.016.688V.192h2.176a13.15,13.15,0,0,1-.128-2.08V-6.912a11.584,11.584,0,0,1,.128-2.08Zm4.336-3.552a14.674,14.674,0,0,1,.112,2.1v8.56a15.652,15.652,0,0,1-.112,2.08H29.04a11.584,11.584,0,0,1-.112-2.048V-2.9L30.24-4.144l1.728,2.528A7.706,7.706,0,0,1,33.024.192h2.848a12.256,12.256,0,0,1-1.456-1.856l-2.7-3.7,2.272-2.16c.688-.656.688-.656,1.6-1.472H32.592a7.366,7.366,0,0,1-1.264,1.424l-2.4,2.384v-5.264a14.973,14.973,0,0,1,.112-2.1ZM43.264.192h2.16a12.868,12.868,0,0,1-.128-2v-4.3a2.687,2.687,0,0,0-.752-2.208,4.16,4.16,0,0,0-3.152-.944,4.791,4.791,0,0,0-3.056.816,3.343,3.343,0,0,0-1.264,1.776L39.12-6.3a1.743,1.743,0,0,1,.64-1.024,2.887,2.887,0,0,1,1.664-.464c1.216,0,1.84.48,1.84,1.408v.816a12.1,12.1,0,0,0-4.512.64,2.838,2.838,0,0,0-1.808,2.592c0,1.68,1.184,2.688,3.136,2.688A5.661,5.661,0,0,0,41.568.16a3.469,3.469,0,0,0,1.7-1.008Zm0-3.568a1.907,1.907,0,0,1-.576,1.408,3.249,3.249,0,0,1-2.224.848c-.9,0-1.456-.464-1.456-1.216,0-1.248,1.2-1.776,4.256-1.84ZM49.456.192V-.592c0-.192,0-.368-.016-.576A3.48,3.48,0,0,0,52.624.416,4.1,4.1,0,0,0,55.7-.736,5.23,5.23,0,0,0,57.008-4.48c0-2.976-1.584-4.72-4.272-4.72a3.73,3.73,0,0,0-3.3,1.616c.016-.544.032-.944.032-1.2v-1.6a16.307,16.307,0,0,1,.112-2.16H47.328A18.659,18.659,0,0,1,47.44-10.4v8.432a16.8,16.8,0,0,1-.112,2.16ZM54.928-4.48c0,1.936-1.04,3.184-2.656,3.184a2.788,2.788,0,0,1-1.68-.592,3.337,3.337,0,0,1-1.056-2.528A3.446,3.446,0,0,1,50.32-6.64,2.855,2.855,0,0,1,52.5-7.52C53.968-7.52,54.928-6.32,54.928-4.48Zm3.7-8.064v2.032h2.352v-2.032Zm0,3.552a13.15,13.15,0,0,1,.128,2.08v5.024a14.379,14.379,0,0,1-.128,2.08H60.96a16.073,16.073,0,0,1-.112-2.1V-6.9a14.382,14.382,0,0,1,.112-2.1ZM62.56-2.416a3.6,3.6,0,0,0,.624,1.424A4.227,4.227,0,0,0,66.752.432a4.723,4.723,0,0,0,3.312-1.04,2.573,2.573,0,0,0,.784-1.808A2.274,2.274,0,0,0,69.92-4.4,6.877,6.877,0,0,0,67.1-5.376a6.739,6.739,0,0,1-1.6-.48.862.862,0,0,1-.5-.752c0-.672.672-1.12,1.664-1.12,1.04,0,1.584.384,1.76,1.264l2.112-.272A3.115,3.115,0,0,0,69.68-8.32a4.365,4.365,0,0,0-3.008-.928A3.859,3.859,0,0,0,63.472-8a2.381,2.381,0,0,0-.5,1.488,2.291,2.291,0,0,0,1.408,2.128,9.672,9.672,0,0,0,2.3.688c1.28.288,1.376.3,1.68.512a.978.978,0,0,1,.416.8c0,.752-.736,1.216-1.92,1.216-1.248,0-1.84-.432-2.112-1.52Z" transform="translate(-0.8 12.8)" fill="#2c2c2c"/>
</svg>
