<svg xmlns="http://www.w3.org/2000/svg" width="72.864" height="20.577" viewBox="0 0 72.864 20.577">
  <g id="グループ_2969" data-name="グループ 2969" transform="translate(-1643.748 -23.526)">
    <path id="前面オブジェクトで型抜き_3" data-name="前面オブジェクトで型抜き 3" d="M5.61,20.577H-1V7.069L8.367,0l9.38,7.069V20.575H11.235V14.267H5.61v6.309Z" transform="translate(1644.748 23.526)" fill="#333"/>
    <path id="パス_10573" data-name="パス 10573" d="M8.484-10.976A10.563,10.563,0,0,1,8.6-9.17v2.688H2.968v-2.7a11.474,11.474,0,0,1,.112-1.792H.994A10.668,10.668,0,0,1,1.106-9.17v7.532A10.563,10.563,0,0,1,.994.168H3.08a10.988,10.988,0,0,1-.112-1.806V-4.8H8.6v3.164A10.668,10.668,0,0,1,8.484.168H10.57a11.1,11.1,0,0,1-.112-1.806V-9.184a10.914,10.914,0,0,1,.112-1.792ZM17.4-11.2A4.852,4.852,0,0,0,13.79-9.8a5.994,5.994,0,0,0-1.6,4.368c0,3.556,2.044,5.838,5.222,5.838s5.236-2.3,5.236-5.838A6.037,6.037,0,0,0,21.084-9.8,4.906,4.906,0,0,0,17.4-11.2Zm.042,9.94a3.023,3.023,0,0,1-2.17-.854,4.625,4.625,0,0,1-1.134-3.3c0-2.534,1.274-4.13,3.29-4.13a3.013,3.013,0,0,1,2.156.854,4.522,4.522,0,0,1,1.106,3.262C20.692-2.856,19.446-1.26,17.444-1.26ZM31.024.168a11.4,11.4,0,0,1,.616-1.862l2.1-4.928a17.085,17.085,0,0,0,.644-2.044c-.014.21-.056.924-.112,2.142v4.648A13.017,13.017,0,0,1,34.16.168h1.96a12.137,12.137,0,0,1-.112-2.044V-8.9a14.5,14.5,0,0,1,.112-2.072H33.544a7.758,7.758,0,0,1-.5,1.666L30.212-2.366,27.37-9.31a9.688,9.688,0,0,1-.518-1.666H24.29A13.888,13.888,0,0,1,24.4-8.9v7.028A13.131,13.131,0,0,1,24.29.168h1.96a12.792,12.792,0,0,1-.112-2.044V-6.468c0-.308-.056-1.456-.112-2.2a15.58,15.58,0,0,0,.714,2.142l2.016,4.8a9.531,9.531,0,0,1,.616,1.89ZM46.06-1.6a13.389,13.389,0,0,1-1.792.1h-4.2V-4.8h3.416a10.97,10.97,0,0,1,1.82.1V-6.538a14.571,14.571,0,0,1-1.82.1h-3.4V-9.324h4.032a12.538,12.538,0,0,1,1.806.1v-1.848a14.958,14.958,0,0,1-1.806.1H39.886c-.854,0-1.218-.014-1.778-.042a12.386,12.386,0,0,1,.112,1.806v7.574A11.325,11.325,0,0,1,38.108.21c.56-.028.938-.042,1.778-.042h4.368a12.036,12.036,0,0,1,1.806.1Z" transform="translate(1670.552 41.188)" fill="#333"/>
  </g>
</svg>
